<svg width="20" height="20" viewBox="0 0 20 20" fill="none" xmlns="http://www.w3.org/2000/svg">
<path d="M0 0 C5.10204904 3.43407147 8.31576158 7.09570353 10 13 C10.82169601 19.70772257 10.94830311 26.33963096 7.3984375 32.28125 C2.93543202 37.76650814 -1.02103143 39.83683857 -8 41 C-8 50.57 -8 60.14 -8 70 C-10.64 70 -13.28 70 -16 70 C-16 60.43 -16 50.86 -16 41 C-17.98 40.67 -19.96 40.34 -22 40 C-27.07701578 37.38922142 -31.1070274 33.67740503 -33.375 28.40234375 C-35.0502269 21.96319034 -35.15617477 14.74047793 -32.5 8.5625 C-29.36195891 3.2990481 -24.47091347 0.13250201 -19 -2.375 C-11.97848313 -3.83781602 -6.34715149 -3.26575429 0 0 Z M-22 8 C-26.25399295 12.58122318 -27.36574206 15.56446607 -27.27734375 21.68359375 C-26.68627752 26.6202455 -23.87977414 29.27663015 -20.1875 32.3125 C-16.50766587 34.26064748 -14.17441454 35 -10 35 C-4.700485 33.30972317 -1.033511 30.73227716 2 26 C3.56840852 21.29477445 3.54895539 17.47351184 1.8125 12.8125 C-1.16337176 8.19476795 -4.76424379 5.61100191 -10 4 C-14.92724274 4 -17.89549739 5.37884946 -22 8 Z " fill="#000000" transform="translate(62,18)"/>
<path d="M0 0 C0 2.31 0 4.62 0 7 C-0.61875 7.2475 -1.2375 7.495 -1.875 7.75 C-4.35068687 9.20628639 -4.95125002 10.37812506 -6 13 C-8.31 13 -10.62 13 -13 13 C-12.74385063 8.64546078 -12.42722153 6.50390232 -9.5625 3.125 C-6.06449309 0.22421378 -4.46381156 -0.11746873 0 0 Z " fill="#000000" transform="translate(50,25)"/>
</svg>
